<svg height="511pt" viewBox="-38 1 511 511.99938" width="511pt" xmlns="http://www.w3.org/2000/svg"><path d="m247.964844 76.800781c-47.125 0-85.332032 38.203125-85.332032 85.332031 0 47.128907 38.207032 85.335938 85.332032 85.335938 47.128906 0 85.335937-38.207031 85.335937-85.335938-.054687-47.105468-38.226562-85.28125-85.335937-85.332031zm62.472656 57.90625-31.511719 8.652344-22.425781-16.339844v-32.5625c23.792969 3.027344 44.261719 18.304688 53.9375 40.25zm-74.359375 43.785157-7.335937-22.605469 19.222656-13.96875 19.226562 13.96875-7.339844 22.605469zm3.355469-84.035157v32.5625l-22.425782 16.339844-31.515624-8.609375c9.667968-21.964844 30.136718-37.253906 53.941406-40.292969zm-59.734375 67.675781c.023437-3.699218.351562-7.394531.972656-11.042968l31.34375 8.535156 8.34375 25.683594-20.128906 25.523437c-13.125-12.804687-20.527344-30.363281-20.53125-48.699219zm34.132812 59.027344 20.191407-25.601562h27.691406l19.199218 26.308594c-20.921874 11.613281-46.410156 11.34375-67.082031-.707032zm80.84375-9.386718-19.164062-26.257813 8.40625-25.875 31.34375-8.53125c3.859375 22.410156-3.886719 45.25-20.585938 60.6875zm0 0"/><path d="m222.367188 264.535156h-51.203126c-4.710937 0-8.53125 3.820313-8.53125 8.53125v51.199219c0 4.714844 3.820313 8.535156 8.53125 8.535156h51.203126c4.710937 0 8.53125-3.820312 8.53125-8.535156v-51.199219c0-4.710937-3.820313-8.53125-8.53125-8.53125zm-8.535157 51.199219h-34.132812v-34.132813h34.132812zm0 0"/><path d="m399.738281 204.84375c-2.265625.121094-4.511719.480469-6.707031 1.066406v-163.175781c-.023438-23.589844-19.140625-42.7109375-42.734375-42.734375h-204.664063c-23.589843.0234375-42.710937 19.144531-42.734374 42.734375v110.867187h-68.265626c-18.851562 0-34.132812 15.28125-34.132812 34.132813s15.28125 34.132813 34.132812 34.132813h37.394532c-14.140625 12.089843-15.800782 33.347656-3.714844 47.488281 1.140625 1.332031 2.382812 2.570312 3.714844 3.710937-14.140625 12.089844-15.800782 33.347656-3.714844 47.488282 1.140625 1.332031 2.382812 2.574218 3.714844 3.710937-14.21875 12.253906-15.8125 33.71875-3.558594 47.9375 6.492188 7.53125 15.957031 11.839844 25.898438 11.796875h8.53125v16.996094c.023437 23.59375 19.144531 42.714844 42.734374 42.738281h85.265626v59.730469c0 4.714844 3.820312 8.535156 8.535156 8.535156h153.597656c4.714844 0 8.535156-3.820312 8.535156-8.535156v-34.695313c19.53125-2.734375 34.078125-19.414062 34.132813-39.132812v-190.703125c.027343-18.851563-15.234375-34.15625-34.085938-34.183594-.625 0-1.25.015625-1.875.050781zm-74.972656 59.691406h-51.199219c-4.714844 0-8.535156 3.820313-8.535156 8.53125v51.199219c0 4.714844 3.824219 8.535156 8.535156 8.535156h51.199219c.066406.003907.132813.003907.195313 0-7.589844 10.101563-12.851563 21.757813-15.410157 34.132813h-168.730469c8.398438-14.035156 5.414063-32.078125-7.046874-42.667969 14.136718-12.085937 15.800781-33.347656 3.710937-47.484375-1.136719-1.332031-2.378906-2.574219-3.710937-3.714844 14.183593-12.183594 15.804687-33.5625 3.617187-47.746094-4.554687-5.304687-10.644531-9.070312-17.425781-10.773437v-154.8125h256v157.21875c-5.519532 6.558594-8.539063 14.859375-8.53125 23.429687v62.292969c-12.855469 4.054688-24.558594 11.121094-34.132813 20.609375v-50.21875c0-4.710937-3.820312-8.53125-8.535156-8.53125zm-8.53125 17.066406v34.132813h-34.136719v-34.132813zm-170.601563-264.535156h204.664063c14.148437.011719 25.621094 11.457032 25.667969 25.601563h-256c.046875-14.148438 11.523437-25.59375 25.667968-25.601563zm-128.066406 170.667969c0-9.425781 7.640625-17.066406 17.066406-17.066406h68.265626v34.132812h-68.265626c-9.425781 0-17.066406-7.640625-17.066406-17.066406zm59.734375 59.730469c0-9.421875 7.640625-17.066406 17.066407-17.066406h17.066406c9.425781 0 17.066406 7.640624 17.066406 17.066406 0 9.425781-7.640625 17.070312-17.066406 17.070312h-17.066406c-9.425782 0-17.066407-7.644531-17.066407-17.070312zm0 51.203125c0-9.425781 7.640625-17.066407 17.066407-17.066407h17.066406c9.425781 0 17.066406 7.640626 17.066406 17.066407s-7.640625 17.066406-17.066406 17.066406h-17.066406c-9.425782 0-17.066407-7.640625-17.066407-17.066406zm0 51.199219c0-9.425782 7.640625-17.066407 17.066407-17.066407h17.066406c9.425781 0 17.066406 7.640625 17.066406 17.066407 0 9.425781-7.640625 17.066406-17.066406 17.066406h-17.066406c-9.425782 0-17.066407-7.640625-17.066407-17.066406zm42.664063 51.132812v-17h187.804687c-.027343 3.082031.113281 6.160156.425781 9.226562 1.292969 11.855469 5.203126 23.277344 11.449219 33.441407h-174.011719c-14.167968-.019531-25.648437-11.5-25.667968-25.667969zm128 93.933594v-51.199219h85.335937c13.953125 13.550781 31.910157 22.230469 51.199219 24.746094v26.453125zm170.667968-65.296875c-.007812 12.496093-10.136718 22.621093-22.628906 22.628906-35.566406.476563-65.925781-25.59375-70.828125-60.824219-3.683593-34.4375 18.949219-66.195312 52.703125-73.949218 3.878906-.894532 6.625-4.347657 6.621094-8.328126v-68.78125c-.28125-9.4375 6.746094-17.503906 16.136719-18.515624h.921875c9.425781 0 17.066406 7.640624 17.066406 17.066406zm0 0"/></svg>