<svg height="512pt" viewBox="-64 0 512 512" width="512pt" xmlns="http://www.w3.org/2000/svg"><path d="m143.683594 338.046875c-3.917969 0-8.882813-1.5-15.75-4.042969-6.871094-2.484375-12.964844-5.238281-18.785156-8.429687-5.757813-3.167969-11.304688-6.792969-16.484376-10.789063-2.507812-1.9375-4.957031-3.957031-7.320312-6.074218l-.828125-.65625c-3.765625-2.960938-7.65625-6.015626-8.003906-10.863282-.53125-7.679687.210937-16.035156 2.21875-24.851562 2.898437-12.746094 9.25-25.164063 18.890625-36.898438 3.933594-4.792968 8.628906-12.847656 8.628906-24.035156 0-2.015625-.582031-3.433594-1.9375-4.730469-4.4375-4.238281-16.308594-6.457031-31.027344-5.765625-9.285156.398438-18.007812-2.433594-24.550781-8.058594-2.40625-2.0625-3.464844-5.296874-2.757813-8.386718 7.621094-33.023438 28.585938-62.207032 57.515626-80.078125 4.429687-2.71875 9.761718-1.507813 16.417968 1.144531 3.492188 1.390625 6.664063 3.378906 9.429688 5.90625 4.597656 4.207031 8.0625 9.941406 10.300781 17.050781 2.515625 8.003907 5.628906 24.710938 1.363281 36.53125-.382812 1.066407-.886718 2.089844-1.40625 3.09375-3.023437 6.15625-1.050781 10.875.367188 13.203125 2.660156 4.378906 7.398437 7.175782 12.355468 7.289063 10.589844.246093 30.328126 4.648437 43.589844 31.308593 1.039063 2.070313 1.953125 4.222657 2.71875 6.425782 10.957032 31.433594-12.175781 51.667968-30.761718 67.933594-4.488282 3.925781-8.71875 7.636718-12.339844 11.3125-2.207032 2.253906-2.847656 3.796874-3.003906 4.703124-.1875 1.136719.070312 2.894532.351562 4.761719l.136719.957031c.578125 4.070313.902343 8.214844.972656 12.3125.050781 2.816407-1.65625 6.203126-3.953125 7.824219-1.832031 1.316407-3.878906 1.902344-6.347656 1.902344zm-50.261719-44.695313c.554687.449219 1.152344.894532 1.632813 1.269532.730468.582031 1.335937 1.066406 1.679687 1.375 2.046875 1.824218 4.164063 3.59375 6.347656 5.273437 4.496094 3.464844 9.300781 6.605469 14.292969 9.351563 5.035156 2.765625 10.316406 5.15625 15.695312 7.09375 1.152344.425781 2.183594.800781 3.113282 1.125-.015625-.144532-.042969-.28125-.058594-.425782l-.128906-.871093c-.410156-2.800781-.921875-6.273438-.300782-10.035157.804688-4.839843 3.382813-9.507812 7.664063-13.867187 4.070313-4.140625 8.746094-8.242187 13.277344-12.203125 19.96875-17.46875 32.554687-30.351562 25.890625-49.46875-.527344-1.515625-1.167969-3.003906-1.886719-4.445312-7.074219-14.222657-16.730469-21.570313-28.714844-21.863282-10.714843-.246094-20.886719-6.183594-26.535156-15.484375-5.496094-9.039062-6.027344-19.558593-1.460937-28.894531l.511718-1.007812c.179688-.351563.375-.683594.511719-1.050782 2.246094-6.21875.855469-17.84375-1.59375-25.632812-1.324219-4.199219-3.175781-7.414063-5.53125-9.566406-1.238281-1.125-2.664063-2.023438-4.25-2.652344-1.441406-.582032-2.492187-.929688-3.226563-1.144532-22.304687 14.496094-38.867187 36.847657-46.242187 62.257813 2.5 1.035156 5.378906 1.527344 8.382813 1.367187 14.207031-.632812 33.285156.621094 43.59375 10.476563 4.71875 4.507813 7.222656 10.414063 7.222656 17.066406 0 16.230469-6.804688 27.921875-12.503906 34.867188-7.933594 9.679687-13.132813 19.722656-15.4375 29.867187-1.390626 6.144532-2.046876 11.921875-1.945313 17.222656zm15.574219-173.449218"/><path d="m207.085938 335.660156c-2.933594 0-5.742188-1.519531-7.3125-4.140625l-9.871094-16.453125c-3.054688-5.058594-3.585938-10.664062-1.476563-15.777344 4.84375-11.777343 22.738281-17.382812 28.03125-18.808593 1.40625-.714844 6.527344-3.734375 6.527344-9.410157 0-.554687.050781-1.101562.164063-1.648437.765624-3.898437 8.199218-38.082031 32.902343-38.082031 7.132813 0 16.121094.773437 22.347657 6.835937l10.4375 10.433594c2.355468 2.355469 3.125 5.863281 1.972656 8.988281-13.535156 36.699219-43.855469 65.730469-81.109375 77.644532-.871094.289062-1.75.417968-2.613281.417968zm32.941406-63.632812c-.472656 13.789062-11.105469 21.816406-17.445313 24.421875-.367187.152343-.757812.28125-1.140625.375-8.441406 2.148437-16.539062 6.742187-17.246094 8.992187l6.605469 10.949219c27.707031-10.785156 50.3125-32.664063 61.984375-60.039063l-6.390625-6.394531c-.855469-.835937-3.429687-1.917969-10.359375-1.917969-8.261718 0-14.292968 15.726563-16.007812 23.613282zm0 0"/><path d="m170.667969 341.332031c-70.582031 0-128-57.417969-128-128 0-70.578125 57.417969-128 128-128 70.578125 0 128 57.421875 128 128 0 70.582031-57.421875 128-128 128zm0-238.933593c-61.167969 0-110.933594 49.769531-110.933594 110.933593 0 61.167969 49.765625 110.933594 110.933594 110.933594 61.164062 0 110.933593-49.765625 110.933593-110.933594 0-61.164062-49.769531-110.933593-110.933593-110.933593zm0 0"/><path d="m255.703125 200.25c-26.019531 0-46.867187-19.710938-55.074219-31.351562-5.597656-7.933594-22.101562-31.324219-3.125-52.382813-.128906-7.375 1.816406-13.21875 6.203125-18.980469.375-.492187.804688-.9375 1.273438-1.339844l1.6875-1.425781c2.347656-1.976562 5.589843-2.558593 8.484375-1.484375 37.671875 13.960938 66.941406 45.304688 78.292968 83.824219.953126 3.242187-.09375 6.75-2.679687 8.933594-.0625.050781-.625.519531-.683594.574219l-3.25 2.582031c-9.097656 7.238281-19.859375 11.050781-31.128906 11.050781zm-40.5625-88.566406c-.65625 1.9375-.742187 4.089844-.398437 7.160156.296874 2.6875-.699219 5.359375-2.6875 7.195312-10.472657 9.683594-6.800782 19.8125 2.515624 33.015626 4.738282 6.714843 21.351563 24.121093 41.132813 24.121093 7.019531 0 13.78125-2.304687 19.617187-6.664062-10.171874-28.875-32.128906-52.523438-60.179687-64.828125zm0 0"/><path d="m315.75 512h-290.167969c-14.105469 0-25.582031-11.476562-25.582031-25.582031v-418.167969c0-14.105469 11.476562-25.582031 25.582031-25.582031h290.160157c14.113281 0 25.589843 11.476562 25.589843 25.582031v418.167969c0 14.105469-11.476562 25.582031-25.582031 25.582031zm-290.167969-452.265625c-4.691406 0-8.515625 3.820313-8.515625 8.515625v418.167969c0 4.691406 3.824219 8.515625 8.515625 8.515625h290.160157c4.703124 0 8.523437-3.824219 8.523437-8.515625v-418.167969c0-4.695312-3.820313-8.515625-8.515625-8.515625zm0 0"/><path d="m204.800781 469.332031h-17.066406c-4.710937 0-8.535156-3.820312-8.535156-8.53125 0-4.710937 3.824219-8.535156 8.535156-8.535156h17.066406c4.710938 0 8.53125-3.832031 8.53125-8.53125v-8.535156c0-4.699219-3.820312-8.53125-8.53125-8.53125-14.113281 0-25.601562-11.488281-25.601562-25.601563v-8.53125c0-14.117187 11.488281-25.601562 25.601562-25.601562h17.066407c4.710937 0 8.53125 3.824218 8.53125 8.53125 0 4.710937-3.820313 8.535156-8.53125 8.535156h-17.066407c-4.710937 0-8.535156 3.832031-8.535156 8.535156v8.53125c0 4.703125 3.824219 8.535156 8.535156 8.535156 14.113281 0 25.597657 11.484376 25.597657 25.597657v8.535156c0 14.113281-11.484376 25.597656-25.597657 25.597656zm0 0"/><path d="m273.066406 469.332031h-17.066406c-4.710938 0-8.535156-3.820312-8.535156-8.53125 0-4.710937 3.824218-8.535156 8.535156-8.535156h17.066406c4.710938 0 8.535156-3.832031 8.535156-8.53125v-8.535156c0-4.699219-3.824218-8.53125-8.535156-8.53125-14.113281 0-25.601562-11.488281-25.601562-25.601563v-8.53125c0-14.117187 11.488281-25.601562 25.601562-25.601562h17.066406c4.710938 0 8.535157 3.824218 8.535157 8.53125 0 4.710937-3.824219 8.535156-8.535157 8.535156h-17.066406c-4.710937 0-8.53125 3.832031-8.53125 8.535156v8.53125c0 4.703125 3.820313 8.535156 8.53125 8.535156 14.113282 0 25.601563 11.484376 25.601563 25.597657v8.535156c0 14.113281-11.488281 25.597656-25.601563 25.597656zm0 0"/><path d="m153.601562 469.332031c-4.710937 0-8.535156-3.820312-8.535156-8.53125v-74.847656c0-1.074219-.878906-1.953125-1.953125-1.953125h-13.160156c-1.074219 0-1.953125.878906-1.953125 1.953125v74.847656c0 4.710938-3.824219 8.53125-8.535156 8.53125-4.707032 0-8.53125-3.820312-8.53125-8.53125v-74.847656c0-10.488281 8.53125-19.019531 19.019531-19.019531h13.160156c10.488281 0 19.019531 8.53125 19.019531 19.019531v74.847656c0 4.710938-3.824218 8.53125-8.53125 8.53125zm0 0"/><path d="m153.601562 426.667969h-34.136718c-4.707032 0-8.53125-3.824219-8.53125-8.535157 0-4.710937 3.824218-8.53125 8.53125-8.53125h34.136718c4.707032 0 8.53125 3.820313 8.53125 8.53125 0 4.710938-3.824218 8.535157-8.53125 8.535157zm0 0"/><path d="m51.199219 469.332031c-4.710938 0-8.53125-3.820312-8.53125-8.53125v-85.335937c0-4.707032 3.820312-8.53125 8.53125-8.53125 4.710937 0 8.535156 3.824218 8.535156 8.53125v85.335937c0 4.710938-3.824219 8.53125-8.535156 8.53125zm0 0"/><path d="m59.734375 435.199219h-8.535156c-4.710938 0-8.53125-3.820313-8.53125-8.53125v-51.203125c0-4.707032 3.820312-8.53125 8.53125-8.53125h8.535156c18.824219 0 34.132813 15.308594 34.132813 34.132812 0 18.824219-15.308594 34.132813-34.132813 34.132813zm0-17.066407h.085937zm0-34.132812v34.132812c9.410156 0 17.066406-7.652343 17.066406-17.066406 0-9.410156-7.65625-17.066406-17.066406-17.066406zm0 0"/><path d="m358.367188 469.332031h-25.566407c-4.710937 0-8.535156-3.820312-8.535156-8.53125v-392.550781c0-4.695312-3.820313-8.515625-8.515625-8.515625h-264.550781c-4.710938 0-8.53125-3.824219-8.53125-8.535156v-25.566407c0-14.128906 11.5-25.632812 25.632812-25.632812h290.054688c14.140625 0 25.644531 11.503906 25.644531 25.632812v418.058594c0 14.140625-11.503906 25.640625-25.632812 25.640625zm-17.035157-17.066406h17.035157c4.71875 0 8.566406-3.847656 8.566406-8.566406v-418.066407c0-4.71875-3.847656-8.566406-8.566406-8.566406h-290.066407c-4.71875 0-8.566406 3.847656-8.566406 8.566406v17.035157h256.015625c14.105469 0 25.582031 11.476562 25.582031 25.582031zm0 0"/></svg>